<svg width="42" height="42" viewBox="0 0 42 42" fill="none" xmlns="http://www.w3.org/2000/svg">
  <defs>
    <linearGradient id="paint0_linear" x1="3.26667" y1="1" x2="37.8" y2="39.1334" gradientUnits="userSpaceOnUse">
      <stop offset="0.259336" stop-color="#219A74"/>
      <stop offset="1" stop-color="#1D8B6A"/>
    </linearGradient>
    <linearGradient id="paint1_linear" x1="3.26667" y1="1" x2="37.8" y2="39.1334" gradientUnits="userSpaceOnUse">
      <stop offset="0.259336" stop-color="#219A74"/>
      <stop offset="1" stop-color="#1D8B6A"/>
    </linearGradient>
  </defs>
  
  <!-- Background Water (Opacity 0.15) -->
  <path opacity="0.15" fill-rule="evenodd" clip-rule="evenodd" 
        d="M6 36 H36 V36 Q30 30, 24 36 T12 36 H6 V36 Z" 
        fill="url(#paint0_linear)"/>
  
  <!-- Bridge Deck -->
  <path d="M6 24 H36" fill="url(#paint1_linear)" stroke="url(#paint1_linear)" stroke-width="0.25"/>
  
  <!-- Left Tower -->
  <path d="M12 12 H16 V24 H12 V12 Z" fill="url(#paint1_linear)" stroke="url(#paint1_linear)" stroke-width="0.25"/>
  <path d="M14 14 L12 16 L14 18" fill="url(#paint1_linear)" stroke="url(#paint1_linear)" stroke-width="0.25"/>
  
  <!-- Right Tower -->
  <path d="M30 12 H34 V24 H30 V12 Z" fill="url(#paint1_linear)" stroke="url(#paint1_linear)" stroke-width="0.25"/>
  <path d="M32 14 L34 16 L32 18" fill="url(#paint1_linear)" stroke="url(#paint1_linear)" stroke-width="0.25"/>
  
  <!-- Suspension Cables -->
  <path d="M12 12 Q18 18, 6 24" fill="url(#paint1_linear)" stroke="url(#paint1_linear)" stroke-width="0.25"/>
  <path d="M16 12 Q18 16, 10 24" fill="url(#paint1_linear)" stroke="url(#paint1_linear)" stroke-width="0.25"/>
  <path d="M30 12 Q24 18, 36 24" fill="url(#paint1_linear)" stroke="url(#paint1_linear)" stroke-width="0.25"/>
  <path d="M34 12 Q24 16, 32 24" fill="url(#paint1_linear)" stroke="url(#paint1_linear)" stroke-width="0.25"/>
</svg>