<svg width="42" height="42" viewBox="0 0 42 42" fill="none" xmlns="http://www.w3.org/2000/svg">
  <defs>
    <linearGradient id="paint0_linear" x1="3.26667" y1="1" x2="37.8" y2="39.1334" gradientUnits="userSpaceOnUse">
      <stop offset="0.259336" stop-color="#219A74"/>
      <stop offset="1" stop-color="#1D8B6A"/>
    </linearGradient>
    <linearGradient id="paint1_linear" x1="3.26667" y1="1" x2="37.8" y2="39.1334" gradientUnits="userSpaceOnUse">
      <stop offset="0.259336" stop-color="#219A74"/>
      <stop offset="1" stop-color="#1D8B6A"/>
    </linearGradient>
  </defs>
  
  <!-- Background Swim Wave (Opacity 0.15) -->
  <path opacity="0.15" fill-rule="evenodd" clip-rule="evenodd" 
        d="M6 36 Q12 30, 18 36 T30 36 H36 V36 Q30 30, 24 36 T12 36 H6 V36 Z" 
        fill="url(#paint0_linear)"/>
  
  <!-- Foreground Elements -->
  <!-- Cycle Wheel -->
  <path d="M21 18 A6 6 0 0 1 27 24 A6 6 0 0 1 21 30 A6 6 0 0 1 15 24 A6 6 0 0 1 21 18 Z" 
        fill="url(#paint1_linear)" stroke="url(#paint1_linear)" stroke-width="0.25"/>
  <!-- Cycle Frame -->
  <path d="M21 18 L24 24 L18 24 Z" fill="url(#paint1_linear)" stroke="url(#paint1_linear)" stroke-width="0.25"/>
  
  <!-- Runner Head -->
  <path d="M30 6 A3 3 0 0 1 33 9 A3 3 0 0 1 30 12 A3 3 0 0 1 27 9 A3 3 0 0 1 30 6 Z" 
        fill="url(#paint1_linear)" stroke="url(#paint1_linear)" stroke-width="0.25"/>
  <!-- Runner Body and Legs -->
  <path d="M30 12 V18 L27 24 H33 L30 18 Z" fill="url(#paint1_linear)" stroke="url(#paint1_linear)" stroke-width="0.25"/>
</svg>