
<svg width="42" height="42" viewBox="0 0 950.4 950.4" fill="none" xmlns="http://www.w3.org/2000/svg">
  <path d="M430,206.95l-197.5,211c-14.4,21-9,49.6,11.9,63.899L443.3,618.15v132.5c0,25.199,20,46.301,45.2,46.801
			c25.8,0.398,46.8-20.301,46.8-46v-157.4c0-15.201-7.5-29.4-20-37.9l-127.6-87.5l107.4-113.899l55,125.3
			c7.3,16.699,23.899,27.5,42.1,27.5h167.5c25.2,0,46.3-20,46.8-45.201c0.4-25.8-20.3-46.8-46-46.8H622.4
			c-18.2-41.4-37.601-82.4-54.5-124.4c-8.601-21.2-13.4-30.4-29.2-45c-3.2-3-25.5-23.4-45.4-41.6
			C475,187.95,446.8,189.05,430,206.95z" fill="url(#paint0_linear)"/>
  <circle cx="618.4" cy="124.55" r="105.4" fill="url(#paint0_linear)"/>
  <circle cx="194" cy="737.25" r="194" fill="url(#paint0_linear)"/>
  <circle cx="756.4" cy="737.25" r="194" fill="url(#paint0_linear)"/>

  <defs>
    <linearGradient id="paint0_linear" x1="0" y1="0" x2="950.4" y2="950.4" gradientUnits="userSpaceOnUse">
      <stop offset="0.259336" stop-color="#219A74"/>
      <stop offset="1" stop-color="#1D8B6A"/>
    </linearGradient>
  </defs>
</svg>
